<?xml version="1.0" encoding="UTF-8" standalone="no"?><!DOCTYPE svg PUBLIC "-//W3C//DTD SVG 1.1//EN" "http://www.w3.org/Graphics/SVG/1.1/DTD/svg11.dtd"><svg width="100%" height="100%" viewBox="0 0 76 30" version="1.1" xmlns="http://www.w3.org/2000/svg" xmlns:xlink="http://www.w3.org/1999/xlink" xml:space="preserve" xmlns:serif="http://www.serif.com/" style="fill-rule:evenodd;clip-rule:evenodd;stroke-linejoin:round;stroke-miterlimit:2;"><g id="Artboard1"><rect x="0" y="0" width="75.938" height="29.949" style="fill:none;"/><g><g><g><path d="M30.727,9.256c0,0.239 0.021,0.378 0.021,0.378l0.198,0.02c0.716,0.079 1.153,1.292 1.153,3.062l0,5.37c0,1.77 -0.437,2.982 -1.153,3.062l-0.198,0.019c-0,0 -0.021,0.14 -0.021,0.379l0,0.218l7.438,0c3.619,0 5.767,-1.312 5.767,-3.38c-0,-1.611 -1.452,-2.745 -4.156,-3.083c2.028,-0.477 3.241,-1.531 3.241,-2.943c0,-2.028 -2.088,-3.321 -5.349,-3.321l-6.941,0l0,0.219Zm4.495,6.562l1.75,-0c2.386,-0 3.699,0.995 3.699,2.566c-0,1.571 -0.994,2.585 -2.824,2.585l-2.625,0l-0,-5.151Zm-0,-0.735l-0,-5.25l2.446,-0c1.372,-0 2.247,0.994 2.247,2.525c-0,1.671 -1.054,2.725 -2.744,2.725l-1.949,-0Z" style="fill:#fff;fill-rule:nonzero;"/><path d="M48.486,9.634l0.199,0.02c0.716,0.079 1.154,1.292 1.154,3.062l-0,5.37c-0,1.77 -0.438,2.982 -1.154,3.062l-0.199,0.019c0,0 -0.02,0.14 -0.02,0.379l-0,0.218l5.728,0l-0,-0.218c-0,-0.239 -0.02,-0.379 -0.02,-0.379l-0.199,-0.019c-0.716,-0.08 -1.154,-1.292 -1.154,-3.062l0,-5.37c0,-1.77 0.438,-2.983 1.154,-3.062l0.199,-0.02c-0,-0 0.02,-0.139 0.02,-0.378l-0,-0.219l-5.728,0l-0,0.219c-0,0.239 0.02,0.378 0.02,0.378Z" style="fill:#fff;fill-rule:nonzero;"/><path d="M58.708,17.509l0.179,3.182c0.835,0.715 2.545,1.371 4.375,1.371c3.181,0 5.23,-1.749 5.23,-4.156c-0,-1.71 -1.412,-3.162 -3.58,-3.758c-2.267,-0.617 -3.739,-1.531 -3.739,-2.327c0,-1.273 1.034,-2.068 2.645,-2.088c1.691,-0.02 3.282,2.088 3.699,3.54l0.299,0l-0.179,-3.182c-0.856,-0.696 -2.347,-1.154 -3.66,-1.154c-3.162,0 -5.17,1.631 -5.17,4.177c0,1.59 1.372,2.983 3.44,3.54c2.327,0.636 3.799,1.63 3.799,2.565c0,1.113 -1.074,2.028 -2.784,2.028c-1.353,0 -2.904,-1.253 -3.838,-2.983c-0.12,-0.218 -0.299,-0.536 -0.438,-0.755l-0.278,-0Z" style="fill:#fff;fill-rule:nonzero;"/></g></g><g><path d="M20.871,22.062l-5.085,-11.812l10.169,-0l-5.084,11.812Z" style="fill:#fff;"/></g><g><path d="M10.701,22.062l-5.085,-11.812l10.169,-0l-5.084,11.812Z" style="fill:#fff;"/></g></g></g></svg>