<?xml version="1.0" encoding="UTF-8" standalone="no"?><!DOCTYPE svg PUBLIC "-//W3C//DTD SVG 1.1//EN" "http://www.w3.org/Graphics/SVG/1.1/DTD/svg11.dtd"><svg width="100%" height="100%" viewBox="0 0 66 26" version="1.1" xmlns="http://www.w3.org/2000/svg" xmlns:xlink="http://www.w3.org/1999/xlink" xml:space="preserve" xmlns:serif="http://www.serif.com/" style="fill-rule:evenodd;clip-rule:evenodd;stroke-linejoin:round;stroke-miterlimit:2;"><rect id="Artboard1" x="0" y="0" width="65.69" height="25.555" style="fill:none;"/><g id="Layer1"><g><path d="M4.383,14.142c-0.255,1.46 -1.052,5.62 -1.125,7.086c-0.008,0.171 0.256,0.202 0.322,0.201c0.097,-0.001 0.237,-0.042 0.3,-0.114c4.814,-5.56 9.59,-11.152 14.36,-16.75c0.26,-0.305 0.273,-0.887 0.02,-1.2c-0.358,-0.443 -0.958,-0.542 -1.499,-0.47c-3.642,0.482 -7.276,1.024 -10.905,1.595c-0.599,0.094 -0.953,0.312 -1.408,0.697c-0.505,0.427 -0.729,1.146 -0.825,1.768c-0.322,2.09 -0.591,4.189 -0.855,6.288c-0.037,0.298 0.143,0.587 0.397,0.729c0.344,0.192 0.945,0.104 1.23,0.094l-0.012,0.076Z" style="fill:#34d399;"/></g><g><path d="M19.643,14.117l-0,-8.727l1.844,-0l-0,7.207l3.74,-0l-0,1.52l-5.584,0Z" style="fill:#fff;fill-rule:nonzero;"/><path d="M30.555,11.328l0,-3.756l1.814,-0l-0,6.545l-1.742,0l-0,-1.19l-0.069,0c-0.146,0.384 -0.391,0.692 -0.733,0.925c-0.343,0.234 -0.76,0.35 -1.251,0.35c-0.438,0 -0.823,-0.099 -1.156,-0.297c-0.332,-0.198 -0.592,-0.481 -0.778,-0.849c-0.186,-0.368 -0.28,-0.806 -0.282,-1.315l0,-4.169l1.814,-0l0,3.845c0.002,0.385 0.105,0.69 0.311,0.915c0.205,0.224 0.48,0.336 0.824,0.336c0.218,0 0.422,-0.051 0.612,-0.152c0.19,-0.101 0.344,-0.251 0.462,-0.45c0.118,-0.199 0.176,-0.444 0.174,-0.738Z" style="fill:#fff;fill-rule:nonzero;"/><path d="M35.144,10.333l-0,3.784l-1.814,0l0,-6.545l1.728,-0l0,1.155l0.075,0c0.147,-0.382 0.391,-0.684 0.731,-0.907c0.341,-0.222 0.754,-0.334 1.24,-0.334c0.455,0 0.852,0.1 1.19,0.299c0.338,0.199 0.601,0.483 0.788,0.85c0.188,0.368 0.28,0.805 0.279,1.313l-0,4.169l-1.814,0l0,-3.845c0.002,-0.4 -0.101,-0.713 -0.307,-0.94c-0.207,-0.226 -0.492,-0.339 -0.855,-0.339c-0.245,0 -0.46,0.053 -0.647,0.159c-0.187,0.106 -0.332,0.259 -0.436,0.459c-0.104,0.199 -0.157,0.44 -0.158,0.722Z" style="fill:#fff;fill-rule:nonzero;"/><path d="M42.218,14.24c-0.417,-0 -0.789,-0.073 -1.116,-0.219c-0.327,-0.146 -0.584,-0.363 -0.773,-0.651c-0.189,-0.289 -0.283,-0.649 -0.283,-1.08c-0,-0.365 0.066,-0.671 0.199,-0.917c0.132,-0.246 0.313,-0.445 0.543,-0.595c0.23,-0.151 0.493,-0.265 0.787,-0.343c0.295,-0.078 0.604,-0.132 0.929,-0.163c0.379,-0.038 0.685,-0.074 0.918,-0.11c0.233,-0.035 0.403,-0.089 0.509,-0.16c0.105,-0.071 0.158,-0.177 0.158,-0.317l0,-0.024c0,-0.27 -0.085,-0.479 -0.255,-0.627c-0.17,-0.148 -0.408,-0.221 -0.716,-0.221c-0.327,-0 -0.587,0.071 -0.781,0.214c-0.193,0.143 -0.321,0.322 -0.382,0.539l-1.681,-0.136c0.086,-0.398 0.253,-0.743 0.503,-1.034c0.249,-0.291 0.573,-0.515 0.969,-0.673c0.397,-0.158 0.856,-0.237 1.378,-0.237c0.366,0 0.715,0.043 1.048,0.129c0.333,0.085 0.629,0.217 0.889,0.395c0.259,0.178 0.465,0.407 0.615,0.687c0.151,0.28 0.227,0.615 0.227,1.005l-0,4.415l-1.722,0l0,-0.907l-0.051,0c-0.106,0.204 -0.246,0.383 -0.421,0.538c-0.176,0.155 -0.387,0.276 -0.635,0.362c-0.248,0.087 -0.534,0.13 -0.856,0.13Zm0.521,-1.251c0.267,-0 0.502,-0.054 0.706,-0.161c0.204,-0.106 0.365,-0.251 0.48,-0.433c0.116,-0.183 0.174,-0.388 0.174,-0.617l0,-0.695c-0.054,0.036 -0.131,0.069 -0.23,0.099c-0.099,0.03 -0.21,0.057 -0.331,0.081c-0.121,0.024 -0.243,0.045 -0.365,0.064c-0.122,0.018 -0.232,0.035 -0.332,0.049c-0.213,0.031 -0.4,0.08 -0.559,0.149c-0.16,0.068 -0.283,0.16 -0.372,0.275c-0.088,0.115 -0.132,0.258 -0.132,0.428c-0,0.249 0.09,0.438 0.271,0.567c0.18,0.129 0.411,0.194 0.69,0.194Z" style="fill:#fff;fill-rule:nonzero;"/><path d="M50.6,7.572l0,1.363l-3.944,0l0,-1.363l3.944,-0Zm-3.047,-1.569l1.813,0l0,6.101c0,0.168 0.026,0.299 0.079,0.392c0.052,0.092 0.124,0.157 0.216,0.194c0.092,0.037 0.199,0.055 0.319,0.055c0.087,-0 0.173,-0.008 0.259,-0.023c0.085,-0.015 0.15,-0.028 0.194,-0.038l0.287,1.353c-0.091,0.029 -0.219,0.062 -0.384,0.101c-0.166,0.038 -0.366,0.061 -0.601,0.069c-0.438,0.017 -0.821,-0.041 -1.149,-0.174c-0.329,-0.133 -0.584,-0.341 -0.766,-0.623c-0.181,-0.283 -0.271,-0.637 -0.267,-1.064l-0,-6.343Z" style="fill:#fff;fill-rule:nonzero;"/><path d="M51.483,14.117l0,-6.545l1.814,-0l0,6.545l-1.814,0Zm0.912,-7.391c-0.27,0 -0.502,-0.09 -0.694,-0.269c-0.193,-0.18 -0.289,-0.396 -0.289,-0.648c-0,-0.252 0.096,-0.468 0.289,-0.648c0.193,-0.179 0.424,-0.269 0.693,-0.269c0.271,0 0.502,0.09 0.694,0.269c0.192,0.18 0.287,0.396 0.287,0.648c0,0.252 -0.095,0.468 -0.287,0.648c-0.192,0.179 -0.423,0.269 -0.693,0.269Z" style="fill:#fff;fill-rule:nonzero;"/><path d="M55.973,12.232l0.004,-2.175l0.265,-0l2.097,-2.485l2.083,-0l-2.816,3.289l-0.433,0l-1.2,1.371Zm-1.643,1.885l0,-8.727l1.814,-0l-0,8.727l-1.814,0Zm4.088,0l-1.923,-2.85l1.207,-1.282l2.843,4.132l-2.127,0Z" style="fill:#fff;fill-rule:nonzero;"/></g><g><path d="M22.915,17.266l-0.777,0c-0.014,-0.1 -0.044,-0.19 -0.088,-0.269c-0.043,-0.079 -0.1,-0.146 -0.168,-0.202c-0.068,-0.055 -0.147,-0.098 -0.236,-0.127c-0.089,-0.029 -0.187,-0.044 -0.292,-0.044c-0.187,0 -0.351,0.046 -0.491,0.139c-0.14,0.093 -0.248,0.228 -0.325,0.405c-0.077,0.177 -0.116,0.391 -0.116,0.644c0,0.259 0.039,0.477 0.117,0.654c0.078,0.176 0.186,0.309 0.326,0.399c0.139,0.089 0.301,0.134 0.485,0.134c0.103,0 0.198,-0.013 0.286,-0.041c0.088,-0.027 0.166,-0.067 0.235,-0.119c0.069,-0.053 0.126,-0.117 0.172,-0.193c0.046,-0.076 0.078,-0.162 0.095,-0.259l0.777,0.004c-0.02,0.167 -0.07,0.327 -0.15,0.481c-0.08,0.155 -0.187,0.293 -0.321,0.414c-0.134,0.122 -0.294,0.218 -0.479,0.288c-0.185,0.07 -0.395,0.105 -0.628,0.105c-0.324,0 -0.614,-0.073 -0.869,-0.219c-0.256,-0.147 -0.457,-0.359 -0.604,-0.638c-0.148,-0.279 -0.221,-0.616 -0.221,-1.01c-0,-0.397 0.074,-0.734 0.223,-1.012c0.149,-0.279 0.352,-0.491 0.608,-0.637c0.255,-0.146 0.543,-0.219 0.863,-0.219c0.211,-0 0.407,0.029 0.588,0.088c0.18,0.059 0.34,0.145 0.479,0.258c0.14,0.113 0.254,0.251 0.342,0.415c0.088,0.164 0.145,0.351 0.169,0.561Z" style="fill:#fff;fill-rule:nonzero;"/><path d="M23.33,19.63l0,-2.728l0.733,0l-0,0.476l0.028,0c0.05,-0.169 0.134,-0.297 0.251,-0.384c0.117,-0.086 0.252,-0.13 0.404,-0.13c0.038,0 0.079,0.002 0.123,0.007c0.043,0.004 0.082,0.01 0.114,0.018l0,0.673c-0.034,-0.012 -0.083,-0.022 -0.146,-0.03c-0.063,-0.008 -0.12,-0.012 -0.173,-0.012c-0.111,0 -0.21,0.024 -0.297,0.072c-0.087,0.048 -0.156,0.115 -0.206,0.2c-0.05,0.085 -0.075,0.183 -0.075,0.295l-0,1.543l-0.756,-0Z" style="fill:#fff;fill-rule:nonzero;"/><path d="M26.347,19.682c-0.28,0 -0.521,-0.057 -0.723,-0.17c-0.202,-0.114 -0.357,-0.276 -0.466,-0.486c-0.109,-0.21 -0.163,-0.459 -0.163,-0.747c-0,-0.281 0.054,-0.527 0.164,-0.739c0.109,-0.212 0.262,-0.377 0.46,-0.495c0.198,-0.119 0.431,-0.178 0.698,-0.178c0.181,-0 0.349,0.029 0.504,0.086c0.156,0.057 0.292,0.143 0.408,0.259c0.117,0.115 0.208,0.259 0.273,0.432c0.065,0.174 0.098,0.376 0.098,0.608l-0,0.207l-2.303,0l0,-0.468l1.591,-0c-0,-0.109 -0.025,-0.205 -0.072,-0.289c-0.047,-0.085 -0.113,-0.151 -0.196,-0.199c-0.084,-0.048 -0.18,-0.072 -0.29,-0.072c-0.114,-0 -0.216,0.026 -0.304,0.08c-0.088,0.053 -0.157,0.123 -0.207,0.211c-0.05,0.088 -0.076,0.186 -0.077,0.294l-0,0.446c-0,0.135 0.025,0.252 0.076,0.35c0.051,0.098 0.122,0.174 0.214,0.227c0.093,0.053 0.202,0.079 0.328,0.079c0.084,0 0.161,-0.012 0.231,-0.035c0.069,-0.024 0.129,-0.06 0.179,-0.107c0.051,-0.047 0.088,-0.105 0.114,-0.173l0.699,0.045c-0.036,0.169 -0.108,0.316 -0.217,0.441c-0.109,0.125 -0.25,0.221 -0.422,0.29c-0.173,0.069 -0.372,0.103 -0.597,0.103Z" style="fill:#fff;fill-rule:nonzero;"/><path d="M28.795,19.681c-0.174,-0 -0.329,-0.03 -0.465,-0.091c-0.136,-0.061 -0.244,-0.151 -0.322,-0.272c-0.079,-0.12 -0.118,-0.27 -0.118,-0.45c-0,-0.152 0.027,-0.279 0.082,-0.382c0.056,-0.102 0.131,-0.185 0.227,-0.248c0.096,-0.062 0.205,-0.11 0.328,-0.142c0.123,-0.033 0.252,-0.056 0.387,-0.069c0.158,-0.015 0.285,-0.03 0.383,-0.045c0.097,-0.015 0.167,-0.037 0.211,-0.067c0.044,-0.03 0.066,-0.074 0.066,-0.132l0,-0.01c0,-0.112 -0.035,-0.2 -0.106,-0.261c-0.071,-0.062 -0.17,-0.092 -0.298,-0.092c-0.137,-0 -0.245,0.029 -0.326,0.089c-0.08,0.059 -0.133,0.134 -0.159,0.224l-0.7,-0.056c0.035,-0.166 0.105,-0.31 0.209,-0.431c0.104,-0.121 0.239,-0.215 0.404,-0.281c0.165,-0.065 0.357,-0.098 0.574,-0.098c0.153,-0 0.298,0.018 0.437,0.053c0.139,0.036 0.262,0.091 0.37,0.165c0.108,0.074 0.194,0.17 0.257,0.286c0.063,0.117 0.094,0.257 0.094,0.419l0,1.84l-0.717,-0l-0,-0.378l-0.022,-0c-0.044,0.085 -0.102,0.159 -0.175,0.224c-0.073,0.065 -0.161,0.115 -0.265,0.151c-0.103,0.036 -0.222,0.054 -0.356,0.054Zm0.217,-0.521c0.111,-0 0.209,-0.023 0.294,-0.067c0.085,-0.045 0.152,-0.105 0.2,-0.181c0.049,-0.076 0.073,-0.162 0.073,-0.257l-0,-0.289c-0.023,0.014 -0.055,0.028 -0.096,0.041c-0.042,0.012 -0.088,0.024 -0.138,0.033c-0.051,0.01 -0.101,0.019 -0.152,0.027c-0.051,0.008 -0.097,0.015 -0.138,0.021c-0.09,0.012 -0.167,0.033 -0.234,0.062c-0.066,0.028 -0.118,0.066 -0.154,0.114c-0.037,0.048 -0.056,0.108 -0.056,0.179c0,0.104 0.038,0.182 0.113,0.236c0.076,0.054 0.171,0.081 0.288,0.081Z" style="fill:#fff;fill-rule:nonzero;"/><path d="M32.287,16.902l0,0.569l-1.643,-0l-0,-0.569l1.643,0Zm-1.269,-0.653l0.755,0l0,2.542c0,0.07 0.011,0.124 0.033,0.163c0.022,0.039 0.052,0.066 0.09,0.081c0.038,0.015 0.083,0.023 0.133,0.023c0.036,0 0.072,-0.003 0.108,-0.01c0.035,-0.006 0.062,-0.011 0.081,-0.016l0.119,0.564c-0.037,0.012 -0.091,0.026 -0.16,0.042c-0.069,0.016 -0.152,0.026 -0.25,0.029c-0.183,0.007 -0.342,-0.017 -0.479,-0.072c-0.137,-0.056 -0.243,-0.142 -0.319,-0.26c-0.076,-0.118 -0.113,-0.265 -0.111,-0.443l-0,-2.643Z" style="fill:#fff;fill-rule:nonzero;"/><path d="M32.655,19.63l0,-2.728l0.756,0l0,2.728l-0.756,-0Zm0.38,-3.08c-0.112,0 -0.209,-0.037 -0.289,-0.112c-0.08,-0.075 -0.12,-0.165 -0.12,-0.27c-0,-0.105 0.04,-0.195 0.12,-0.27c0.08,-0.075 0.177,-0.112 0.289,-0.112c0.113,-0 0.209,0.037 0.289,0.112c0.08,0.075 0.12,0.165 0.12,0.27c-0,0.105 -0.04,0.195 -0.12,0.27c-0.08,0.075 -0.176,0.112 -0.289,0.112Z" style="fill:#fff;fill-rule:nonzero;"/><path d="M36.383,16.902l-0.954,2.728l-0.852,-0l-0.953,-2.728l0.8,0l0.565,1.952l0.029,0l0.565,-1.952l0.8,0Z" style="fill:#fff;fill-rule:nonzero;"/><path d="M37.768,19.682c-0.28,0 -0.521,-0.057 -0.723,-0.17c-0.202,-0.114 -0.358,-0.276 -0.467,-0.486c-0.108,-0.21 -0.163,-0.459 -0.163,-0.747c0,-0.281 0.055,-0.527 0.164,-0.739c0.109,-0.212 0.263,-0.377 0.461,-0.495c0.197,-0.119 0.43,-0.178 0.698,-0.178c0.18,-0 0.348,0.029 0.504,0.086c0.155,0.057 0.291,0.143 0.408,0.259c0.116,0.115 0.207,0.259 0.272,0.432c0.066,0.174 0.098,0.376 0.098,0.608l0,0.207l-2.302,0l-0,-0.468l1.591,-0c-0.001,-0.109 -0.025,-0.205 -0.073,-0.289c-0.047,-0.085 -0.112,-0.151 -0.196,-0.199c-0.083,-0.048 -0.18,-0.072 -0.289,-0.072c-0.115,-0 -0.216,0.026 -0.304,0.08c-0.089,0.053 -0.158,0.123 -0.208,0.211c-0.05,0.088 -0.075,0.186 -0.077,0.294l0,0.446c0,0.135 0.026,0.252 0.076,0.35c0.051,0.098 0.123,0.174 0.215,0.227c0.092,0.053 0.201,0.079 0.327,0.079c0.085,0 0.162,-0.012 0.231,-0.035c0.07,-0.024 0.13,-0.06 0.18,-0.107c0.05,-0.047 0.088,-0.105 0.113,-0.173l0.699,0.045c-0.035,0.169 -0.107,0.316 -0.217,0.441c-0.109,0.125 -0.25,0.221 -0.422,0.29c-0.172,0.069 -0.371,0.103 -0.596,0.103Z" style="fill:#fff;fill-rule:nonzero;"/><path d="M41.621,19.681c-0.173,-0 -0.328,-0.03 -0.464,-0.091c-0.137,-0.061 -0.244,-0.151 -0.323,-0.272c-0.078,-0.12 -0.118,-0.27 -0.118,-0.45c0,-0.152 0.028,-0.279 0.083,-0.382c0.055,-0.102 0.131,-0.185 0.227,-0.248c0.096,-0.062 0.205,-0.11 0.328,-0.142c0.122,-0.033 0.251,-0.056 0.387,-0.069c0.157,-0.015 0.285,-0.03 0.382,-0.045c0.097,-0.015 0.168,-0.037 0.212,-0.067c0.044,-0.03 0.066,-0.074 0.066,-0.132l0,-0.01c0,-0.112 -0.035,-0.2 -0.106,-0.261c-0.071,-0.062 -0.17,-0.092 -0.299,-0.092c-0.136,-0 -0.244,0.029 -0.325,0.089c-0.08,0.059 -0.134,0.134 -0.159,0.224l-0.7,-0.056c0.035,-0.166 0.105,-0.31 0.209,-0.431c0.104,-0.121 0.239,-0.215 0.404,-0.281c0.165,-0.065 0.357,-0.098 0.574,-0.098c0.152,-0 0.298,0.018 0.437,0.053c0.138,0.036 0.262,0.091 0.37,0.165c0.108,0.074 0.194,0.17 0.256,0.286c0.063,0.117 0.095,0.257 0.095,0.419l-0,1.84l-0.718,-0l0,-0.378l-0.021,-0c-0.044,0.085 -0.102,0.159 -0.175,0.224c-0.074,0.065 -0.162,0.115 -0.265,0.151c-0.103,0.036 -0.222,0.054 -0.357,0.054Zm0.218,-0.521c0.111,-0 0.209,-0.023 0.294,-0.067c0.085,-0.045 0.152,-0.105 0.2,-0.181c0.048,-0.076 0.072,-0.162 0.072,-0.257l0,-0.289c-0.022,0.014 -0.054,0.028 -0.096,0.041c-0.041,0.012 -0.087,0.024 -0.137,0.033c-0.051,0.01 -0.102,0.019 -0.152,0.027c-0.051,0.008 -0.097,0.015 -0.139,0.021c-0.089,0.012 -0.167,0.033 -0.233,0.062c-0.066,0.028 -0.118,0.066 -0.155,0.114c-0.037,0.048 -0.055,0.108 -0.055,0.179c0,0.104 0.038,0.182 0.113,0.236c0.075,0.054 0.171,0.081 0.288,0.081Z" style="fill:#fff;fill-rule:nonzero;"/><path d="M44.893,20.709c-0.245,0 -0.456,-0.033 -0.631,-0.1c-0.175,-0.068 -0.314,-0.158 -0.416,-0.273c-0.103,-0.115 -0.17,-0.244 -0.201,-0.387l0.701,-0.093c0.021,0.054 0.054,0.105 0.1,0.152c0.046,0.047 0.107,0.085 0.183,0.114c0.077,0.029 0.17,0.043 0.281,0.043c0.164,0 0.299,-0.04 0.407,-0.119c0.107,-0.08 0.161,-0.213 0.161,-0.401l-0,-0.498l-0.031,-0c-0.034,0.075 -0.084,0.147 -0.151,0.214c-0.066,0.068 -0.151,0.124 -0.255,0.166c-0.104,0.043 -0.228,0.064 -0.373,0.064c-0.204,0 -0.39,-0.047 -0.558,-0.143c-0.167,-0.096 -0.301,-0.242 -0.4,-0.439c-0.099,-0.196 -0.148,-0.446 -0.148,-0.749c-0,-0.309 0.05,-0.567 0.151,-0.773c0.1,-0.207 0.235,-0.362 0.402,-0.465c0.168,-0.103 0.352,-0.155 0.552,-0.155c0.152,-0 0.279,0.026 0.382,0.077c0.103,0.052 0.186,0.115 0.25,0.192c0.064,0.076 0.113,0.151 0.146,0.225l0.03,0l-0,-0.459l0.75,0l-0,2.755c-0,0.232 -0.057,0.426 -0.171,0.582c-0.113,0.156 -0.271,0.273 -0.471,0.352c-0.201,0.079 -0.431,0.118 -0.69,0.118Zm0.015,-1.686c0.121,0 0.225,-0.03 0.31,-0.091c0.085,-0.061 0.15,-0.149 0.195,-0.263c0.045,-0.114 0.068,-0.251 0.068,-0.411c-0,-0.16 -0.023,-0.299 -0.067,-0.417c-0.045,-0.118 -0.11,-0.209 -0.195,-0.274c-0.085,-0.065 -0.189,-0.098 -0.311,-0.098c-0.125,0 -0.23,0.034 -0.315,0.101c-0.085,0.066 -0.149,0.159 -0.193,0.278c-0.044,0.118 -0.066,0.255 -0.066,0.41c0,0.156 0.022,0.292 0.067,0.406c0.044,0.115 0.108,0.203 0.193,0.266c0.086,0.062 0.19,0.093 0.314,0.093Z" style="fill:#fff;fill-rule:nonzero;"/><path d="M47.952,19.682c-0.28,0 -0.521,-0.057 -0.723,-0.17c-0.202,-0.114 -0.357,-0.276 -0.466,-0.486c-0.109,-0.21 -0.163,-0.459 -0.163,-0.747c-0,-0.281 0.055,-0.527 0.164,-0.739c0.109,-0.212 0.262,-0.377 0.46,-0.495c0.198,-0.119 0.431,-0.178 0.698,-0.178c0.181,-0 0.349,0.029 0.504,0.086c0.156,0.057 0.292,0.143 0.408,0.259c0.117,0.115 0.208,0.259 0.273,0.432c0.065,0.174 0.098,0.376 0.098,0.608l0,0.207l-2.302,0l-0,-0.468l1.59,-0c-0,-0.109 -0.024,-0.205 -0.072,-0.289c-0.047,-0.085 -0.113,-0.151 -0.196,-0.199c-0.084,-0.048 -0.18,-0.072 -0.29,-0.072c-0.114,-0 -0.216,0.026 -0.304,0.08c-0.088,0.053 -0.157,0.123 -0.207,0.211c-0.05,0.088 -0.075,0.186 -0.077,0.294l0,0.446c0,0.135 0.025,0.252 0.076,0.35c0.051,0.098 0.122,0.174 0.215,0.227c0.092,0.053 0.201,0.079 0.327,0.079c0.085,0 0.162,-0.012 0.231,-0.035c0.07,-0.024 0.129,-0.06 0.18,-0.107c0.05,-0.047 0.088,-0.105 0.113,-0.173l0.699,0.045c-0.036,0.169 -0.108,0.316 -0.217,0.441c-0.109,0.125 -0.25,0.221 -0.422,0.29c-0.173,0.069 -0.372,0.103 -0.597,0.103Z" style="fill:#fff;fill-rule:nonzero;"/><path d="M50.378,18.053l0,1.577l-0.755,-0l-0,-2.728l0.72,0l-0,0.482l0.031,0c0.061,-0.159 0.163,-0.285 0.305,-0.378c0.142,-0.093 0.314,-0.139 0.516,-0.139c0.19,-0 0.355,0.041 0.496,0.124c0.141,0.083 0.25,0.201 0.328,0.355c0.078,0.153 0.117,0.335 0.116,0.547l0,1.737l-0.755,-0l-0,-1.603c0,-0.166 -0.042,-0.297 -0.128,-0.391c-0.086,-0.094 -0.205,-0.141 -0.357,-0.141c-0.101,-0 -0.191,0.022 -0.269,0.066c-0.078,0.044 -0.138,0.108 -0.182,0.191c-0.043,0.083 -0.065,0.184 -0.066,0.301Z" style="fill:#fff;fill-rule:nonzero;"/><path d="M53.78,19.682c-0.279,0 -0.52,-0.059 -0.72,-0.178c-0.2,-0.119 -0.354,-0.284 -0.461,-0.496c-0.107,-0.211 -0.161,-0.455 -0.161,-0.732c0,-0.278 0.054,-0.523 0.163,-0.735c0.108,-0.212 0.262,-0.377 0.462,-0.496c0.2,-0.119 0.438,-0.178 0.715,-0.178c0.237,-0 0.445,0.043 0.624,0.129c0.179,0.087 0.321,0.208 0.424,0.365c0.104,0.156 0.161,0.34 0.172,0.55l-0.713,-0c-0.021,-0.136 -0.074,-0.245 -0.159,-0.329c-0.086,-0.084 -0.198,-0.126 -0.337,-0.126c-0.117,0 -0.219,0.032 -0.306,0.095c-0.087,0.064 -0.155,0.156 -0.204,0.276c-0.048,0.121 -0.073,0.267 -0.073,0.439c0,0.174 0.025,0.322 0.073,0.443c0.048,0.122 0.115,0.215 0.203,0.279c0.087,0.064 0.189,0.096 0.307,0.096c0.087,0 0.165,-0.017 0.234,-0.053c0.068,-0.035 0.126,-0.087 0.171,-0.155c0.046,-0.067 0.076,-0.15 0.091,-0.246l0.713,-0c-0.012,0.208 -0.068,0.392 -0.169,0.55c-0.101,0.158 -0.241,0.282 -0.419,0.37c-0.177,0.088 -0.387,0.132 -0.63,0.132Z" style="fill:#fff;fill-rule:nonzero;"/><path d="M55.806,20.652c-0.096,0 -0.186,-0.007 -0.269,-0.022c-0.083,-0.015 -0.152,-0.033 -0.207,-0.055l0.171,-0.565c0.089,0.027 0.169,0.042 0.24,0.044c0.071,0.002 0.134,-0.014 0.187,-0.05c0.053,-0.035 0.096,-0.096 0.129,-0.181l0.044,-0.115l-0.978,-2.806l0.795,0l0.565,2.003l0.029,0l0.569,-2.003l0.8,0l-1.059,3.023c-0.051,0.147 -0.12,0.275 -0.207,0.384c-0.088,0.109 -0.197,0.194 -0.329,0.254c-0.132,0.06 -0.292,0.089 -0.48,0.089Z" style="fill:#fff;fill-rule:nonzero;"/></g></g></svg>