<svg width="178" height="38" viewBox="0 0 178 38" fill="none" xmlns="http://www.w3.org/2000/svg">
<path fill-rule="evenodd" clip-rule="evenodd" d="M4.178 22.982C3.668 25.902 2.074 34.22 1.928 37.154C1.912 37.494 2.44 37.558 2.572 37.556C2.766 37.552 3.046 37.472 3.172 37.326C12.8 26.208 22.352 15.022 31.894 3.82801C32.414 3.21801 32.438 2.05401 31.932 1.42801C31.216 0.542007 30.016 0.344006 28.936 0.486006C21.652 1.45201 14.382 2.53601 7.124 3.67801C5.926 3.86601 5.218 4.3 4.308 5.072C3.298 5.926 2.85 7.36201 2.658 8.60601C2.014 12.788 1.476 16.986 0.948003 21.182C0.874003 21.778 1.234 22.358 1.742 22.642C2.43 23.026 3.632 22.85 4.202 22.828L4.178 22.982Z" fill="#34D399"/>
<path d="M36.252 25.634H32.298L38.318 8.18002H43.076L49.098 25.634H45.142L40.766 12.168H40.63L36.252 25.634ZM36.006 18.776H45.348V21.652H36.006V18.776Z" fill="#020617"/>
<path d="M49.404 25.634V12.544H52.922V14.828H53.058C53.298 14.016 53.698 13.402 54.26 12.984C54.822 12.568 55.468 12.36 56.202 12.36C56.384 12.36 56.58 12.37 56.79 12.39C56.998 12.412 57.182 12.442 57.34 12.48V15.706C57.174 15.652 56.94 15.606 56.638 15.568C56.338 15.528 56.06 15.51 55.806 15.51C55.276 15.51 54.802 15.624 54.382 15.854C53.964 16.084 53.634 16.404 53.392 16.812C53.152 17.22 53.032 17.694 53.032 18.23V25.634H49.404Z" fill="#020617"/>
<path d="M66.116 12.544V15.27H58.226V12.544H66.116ZM60.02 9.40601H63.648V21.608C63.648 21.944 63.7 22.206 63.804 22.392C63.908 22.576 64.052 22.706 64.238 22.78C64.422 22.854 64.634 22.89 64.874 22.89C65.048 22.89 65.22 22.874 65.392 22.844C65.562 22.814 65.692 22.788 65.782 22.768L66.354 25.474C66.174 25.532 65.918 25.598 65.586 25.676C65.254 25.752 64.854 25.798 64.384 25.814C63.508 25.848 62.742 25.732 62.086 25.466C61.43 25.2 60.918 24.784 60.556 24.22C60.192 23.654 60.014 22.946 60.02 22.092V9.40601Z" fill="#020617"/>
<path d="M80.542 25.886C79.218 25.886 78.074 25.604 77.112 25.04C76.15 24.476 75.406 23.688 74.884 22.674C74.36 21.662 74.1 20.482 74.1 19.136C74.1 17.786 74.36 16.604 74.884 15.588C75.406 14.572 76.15 13.784 77.112 13.218C78.074 12.654 79.218 12.372 80.542 12.372C81.868 12.372 83.012 12.654 83.974 13.218C84.936 13.784 85.68 14.572 86.202 15.588C86.724 16.604 86.986 17.786 86.986 19.136C86.986 20.482 86.724 21.662 86.202 22.674C85.68 23.688 84.936 24.476 83.974 25.04C83.012 25.604 81.868 25.886 80.542 25.886ZM80.564 23.078C81.16 23.078 81.662 22.906 82.068 22.56C82.474 22.216 82.78 21.746 82.988 21.15C83.194 20.552 83.298 19.874 83.298 19.116C83.298 18.354 83.194 17.674 82.988 17.076C82.78 16.48 82.474 16.008 82.068 15.66C81.662 15.314 81.16 15.14 80.564 15.14C79.952 15.14 79.44 15.314 79.028 15.66C78.614 16.008 78.306 16.48 78.098 17.076C77.892 17.674 77.788 18.354 77.788 19.116C77.788 19.874 77.892 20.552 78.098 21.15C78.306 21.746 78.614 22.216 79.028 22.56C79.44 22.906 79.952 23.078 80.564 23.078Z" fill="#020617"/>
<path d="M95.986 12.544V15.27H87.906V12.544H95.986ZM89.754 25.634V11.596C89.754 10.648 89.94 9.86003 90.314 9.23403C90.686 8.60803 91.196 8.14003 91.844 7.82803C92.492 7.51803 93.226 7.36203 94.05 7.36203C94.606 7.36203 95.116 7.40403 95.58 7.49003C96.044 7.57803 96.388 7.65403 96.614 7.72203L95.972 10.444C95.83 10.398 95.654 10.358 95.446 10.318C95.238 10.278 95.024 10.26 94.806 10.26C94.274 10.26 93.904 10.382 93.694 10.628C93.486 10.876 93.382 11.22 93.382 11.664V25.634H89.754Z" fill="#020617"/>
<path d="M113.89 13.198C113.822 12.512 113.53 11.978 113.012 11.596C112.494 11.214 111.794 11.022 110.91 11.022C110.308 11.022 109.8 11.108 109.382 11.278C108.966 11.448 108.65 11.68 108.432 11.974C108.216 12.268 108.106 12.604 108.102 12.98C108.094 13.292 108.162 13.566 108.306 13.798C108.448 14.032 108.648 14.232 108.904 14.4C109.162 14.568 109.458 14.712 109.792 14.832C110.128 14.952 110.484 15.056 110.864 15.14L112.432 15.516C113.192 15.686 113.892 15.914 114.528 16.2C115.164 16.484 115.716 16.834 116.184 17.25C116.652 17.666 117.016 18.154 117.274 18.718C117.534 19.28 117.664 19.924 117.668 20.65C117.664 21.716 117.394 22.64 116.856 23.422C116.318 24.204 115.546 24.808 114.538 25.236C113.528 25.666 112.314 25.88 110.89 25.88C109.48 25.88 108.254 25.664 107.212 25.234C106.172 24.802 105.36 24.162 104.778 23.314C104.198 22.464 103.892 21.41 103.86 20.152H107.434C107.474 20.736 107.642 21.224 107.942 21.614C108.24 22.002 108.64 22.296 109.14 22.49C109.642 22.686 110.21 22.784 110.85 22.784C111.476 22.784 112.02 22.694 112.48 22.514C112.942 22.332 113.3 22.08 113.556 21.758C113.812 21.436 113.942 21.062 113.946 20.636C113.942 20.244 113.824 19.914 113.594 19.648C113.364 19.382 113.03 19.154 112.59 18.966C112.15 18.778 111.614 18.608 110.98 18.454L109.076 17.984C107.604 17.626 106.442 17.066 105.59 16.302C104.738 15.54 104.314 14.514 104.318 13.224C104.314 12.17 104.598 11.246 105.17 10.454C105.744 9.66203 106.528 9.04603 107.528 8.60403C108.528 8.16203 109.664 7.94003 110.938 7.94003C112.234 7.94003 113.364 8.16203 114.332 8.60603C115.298 9.04803 116.054 9.66603 116.594 10.456C117.136 11.246 117.414 12.16 117.43 13.198H113.89Z" fill="#020617"/>
<path d="M125.624 25.886C124.282 25.886 123.124 25.614 122.154 25.068C121.186 24.522 120.44 23.744 119.916 22.736C119.394 21.728 119.134 20.532 119.134 19.15C119.134 17.802 119.396 16.62 119.92 15.602C120.444 14.586 121.18 13.794 122.13 13.224C123.08 12.656 124.198 12.372 125.482 12.372C126.348 12.372 127.154 12.51 127.9 12.786C128.646 13.06 129.3 13.474 129.858 14.026C130.418 14.58 130.854 15.272 131.168 16.104C131.482 16.936 131.638 17.908 131.638 19.02V20.016H120.586V17.766H128.222C128.218 17.246 128.104 16.784 127.876 16.38C127.648 15.976 127.334 15.658 126.932 15.426C126.532 15.196 126.068 15.08 125.542 15.08C124.994 15.08 124.508 15.208 124.084 15.462C123.66 15.718 123.328 16.056 123.09 16.478C122.85 16.902 122.726 17.372 122.72 17.888V20.03C122.72 20.678 122.842 21.236 123.084 21.708C123.328 22.18 123.672 22.544 124.114 22.798C124.558 23.052 125.082 23.18 125.686 23.18C126.092 23.18 126.462 23.122 126.794 23.008C127.128 22.892 127.416 22.722 127.656 22.496C127.898 22.272 128.08 21.994 128.202 21.666L131.556 21.884C131.386 22.694 131.038 23.398 130.514 23.996C129.992 24.596 129.316 25.062 128.488 25.392C127.66 25.722 126.706 25.886 125.624 25.886Z" fill="#020617"/>
<path d="M137.27 8.18002H133.642V25.634H137.27V8.18002Z" fill="#020617"/>
<path d="M142.964 8.18002H139.336V25.634H142.964V8.18002Z" fill="#020617"/>
<path d="M145.03 25.634V12.544H148.656V25.634H145.03ZM146.852 10.852C146.312 10.852 145.85 10.672 145.464 10.314C145.078 9.95403 144.886 9.52202 144.886 9.01802C144.886 8.51402 145.078 8.08202 145.464 7.72202C145.85 7.36402 146.312 7.18402 146.85 7.18402C147.392 7.18402 147.854 7.36402 148.238 7.72202C148.622 8.08202 148.814 8.51402 148.814 9.01802C148.814 9.52202 148.622 9.95403 148.238 10.314C147.854 10.672 147.392 10.852 146.852 10.852Z" fill="#020617"/>
<path d="M154.35 18.066V25.634H150.722V12.544H154.18V14.854H154.33C154.622 14.09 155.11 13.486 155.79 13.04C156.472 12.596 157.298 12.372 158.27 12.372C159.18 12.372 159.974 12.572 160.65 12.97C161.328 13.368 161.852 13.936 162.228 14.67C162.602 15.406 162.786 16.28 162.784 17.296V25.634H159.156V17.944C159.16 17.144 158.954 16.518 158.542 16.064C158.128 15.612 157.558 15.386 156.832 15.386C156.342 15.386 155.912 15.492 155.538 15.704C155.166 15.916 154.874 16.222 154.666 16.622C154.458 17.02 154.352 17.502 154.35 18.066Z" fill="#020617"/>
<path d="M170.666 30.816C169.49 30.816 168.482 30.654 167.64 30.332C166.8 30.01 166.134 29.574 165.64 29.024C165.146 28.472 164.826 27.854 164.68 27.168L168.04 26.718C168.14 26.98 168.3 27.226 168.522 27.452C168.742 27.678 169.036 27.86 169.402 27.998C169.768 28.136 170.216 28.204 170.748 28.204C171.534 28.204 172.186 28.014 172.702 27.632C173.216 27.25 173.474 26.61 173.474 25.71V23.316H173.324C173.164 23.678 172.922 24.02 172.604 24.346C172.284 24.672 171.876 24.938 171.378 25.142C170.88 25.348 170.284 25.45 169.588 25.45C168.606 25.45 167.714 25.22 166.91 24.762C166.106 24.302 165.466 23.6 164.99 22.656C164.514 21.712 164.276 20.514 164.276 19.062C164.276 17.578 164.518 16.34 165.002 15.348C165.486 14.356 166.13 13.612 166.936 13.116C167.74 12.62 168.622 12.372 169.582 12.372C170.312 12.372 170.922 12.496 171.418 12.744C171.912 12.99 172.312 13.296 172.618 13.662C172.922 14.028 173.156 14.388 173.318 14.746H173.462V12.544H177.06V25.764C177.06 26.878 176.788 27.81 176.242 28.558C175.696 29.306 174.942 29.87 173.98 30.248C173.016 30.626 171.912 30.816 170.666 30.816ZM170.74 22.722C171.322 22.722 171.818 22.576 172.226 22.284C172.634 21.992 172.948 21.57 173.164 21.022C173.38 20.474 173.488 19.816 173.488 19.048C173.488 18.282 173.382 17.616 173.166 17.05C172.952 16.482 172.642 16.044 172.232 15.732C171.824 15.42 171.326 15.264 170.74 15.264C170.14 15.264 169.636 15.424 169.228 15.746C168.82 16.066 168.51 16.512 168.3 17.08C168.09 17.648 167.986 18.304 167.986 19.048C167.986 19.8 168.092 20.45 168.304 21C168.516 21.55 168.826 21.974 169.234 22.274C169.642 22.574 170.144 22.722 170.74 22.722Z" fill="#020617"/>
</svg>
